Coordinates
version=1
nRows=14
nColumns=24
inDegrees=yes

Units are S.I. units (second, meters, Newtons, ...)
Angles are in degrees.

endheader
time	pelvis_tilt	pelvis_list	pelvis_rotation	pelvis_tx	pelvis_ty	pelvis_tz	hip_flexion_r	hip_adduction_r	hip_rotation_r	knee_angle_r	ankle_angle_r	subtalar_angle_r	mtp_angle_r	hip_flexion_l	hip_adduction_l	hip_rotation_l	knee_angle_l	ankle_angle_l	subtalar_angle_l	mtp_angle_l	lumbar_extension	lumbar_bending	lumbar_rotation
      4.99000000	     -4.38028175	     -4.63585389	    -13.39221254	     -0.71453698	      0.66911896	      0.34207632	    -16.01105857	      9.60657670	      4.84268646	      1.18229008	     13.40037105	      3.29634300	      0.00000000	     26.49422642	    -10.28696351	     -6.17792699	      1.87511208	      2.68146262	     -6.00525103	      0.00000000	    -11.50495213	     -6.26566367	     10.71166017
      5.00000000	     -4.39819221	     -4.67035252	    -14.68880280	     -0.70259662	      0.66666113	      0.34262276	    -16.94683963	      9.05744759	      6.07314449	      0.69864518	     13.80674133	      3.01318844	      0.00000000	     26.31548515	    -10.70003602	     -6.47773364	      3.51549398	      2.17825034	     -5.40500586	      0.00000000	    -11.41351005	     -6.24189414	     11.89369886
      5.01000000	     -4.28226091	     -4.58992381	    -15.79740364	     -0.69050006	      0.66437640	      0.34298824	    -17.96154069	      8.37467781	      7.34887221	      0.21614093	     13.86274727	      2.16368622	      0.00000000	     26.25631001	    -10.85250823	     -7.09197427	      3.99707106	      1.85674392	     -5.53474807	      0.00000000	    -11.45924982	     -6.38176898	     12.85422501
      5.02000000	     -4.22881273	     -4.28738256	    -16.68107857	     -0.67799972	      0.66210935	      0.34313318	    -18.75824134	      7.52282913	      7.91775748	     -0.39821807	     14.12209818	      2.03047371	      0.00000000	     26.53641487	    -10.64958480	     -8.02275900	      3.32734862	      1.75851271	     -6.30935849	      0.00000000	    -11.28266727	     -6.73642760	     13.67923085
      5.03000000	     -4.08504956	     -3.86995162	    -17.32266179	     -0.66501178	      0.65997490	      0.34304384	    -19.61430643	      6.56446260	      8.26849578	     -0.99149304	     14.06484504	      1.70389029	      0.00000000	     26.94069568	    -10.16165872	     -9.28389561	      1.61509042	      1.94840989	     -7.61421534	      0.00000000	    -11.09818010	     -7.20274450	     14.31231941
      5.04000000	     -4.03090257	     -3.37387246	    -17.71271755	     -0.65139320	      0.65778859	      0.34274347	    -20.38521484	      5.59762577	      8.22321684	     -1.53714888	     13.76258186	      1.53635919	      0.00000000	     27.58493165	     -9.49728241	    -10.68743388	     -0.95780529	      2.43476359	     -9.15967849	      0.00000000	    -10.64698434	     -7.67764950	     14.89709725
      5.05000000	     -4.07280194	     -2.87927453	    -17.93070726	     -0.63716219	      0.65557945	      0.34229883	    -21.06355647	      4.68888035	      7.98041722	     -2.11278025	     13.23292828	      1.43091017	      0.00000000	     28.31833645	     -8.79780569	    -12.25012204	     -4.02452918	      2.87274243	    -10.79707668	      0.00000000	     -9.95591226	     -8.06217774	     15.43964215
      5.06000000	     -4.25716034	     -2.38275687	    -17.98889834	     -0.62233901	      0.65334136	      0.34174280	    -21.58139747	      3.85374088	      7.50910751	     -2.74946704	     12.43501765	      1.45136538	      0.00000000	     29.05636156	     -8.08754139	    -13.63123098	     -7.18924178	      3.18227327	    -12.37919351	      0.00000000	     -8.97596147	     -8.35155441	     15.99855989
      5.07000000	     -4.71382390	     -1.84866307	    -17.87742607	     -0.60711618	      0.65105638	      0.34105835	    -21.69738474	      3.12090097	      6.84288901	     -3.60963055	     11.52759347	      1.60512480	      0.00000000	     29.88384610	     -7.33708307	    -14.46304087	    -10.09954656	      3.02491384	    -14.08127540	      0.00000000	     -7.60587528	     -8.55110881	     16.47065851
      5.08000000	     -5.20669163	     -1.25586411	    -17.54739241	     -0.59165902	      0.64907066	      0.34018015	    -21.59215000	      2.40760679	      5.78271115	     -4.71616979	     10.23291619	      2.04469316	      0.00000000	     30.52701034	     -6.37260292	    -14.32893205	    -12.45920696	      2.24868130	    -16.17230222	      0.00000000	     -6.18537382	     -8.79769430	     16.87904233
      5.09000000	     -5.56719258	     -0.41693554	    -16.91293127	     -0.57617033	      0.64758153	      0.33914561	    -21.33673632	      1.54529810	      4.55660578	     -6.14627416	      8.57338797	      2.06440553	      0.00000000	     31.05158124	     -5.05753101	    -14.00567942	    -14.51784861	      1.50189612	    -17.28752206	      0.00000000	     -4.95127946	     -9.42836387	     16.88725713
      5.10000000	     -5.89207437	      0.43523286	    -16.04075667	     -0.56089794	      0.64662330	      0.33799107	    -20.80227224	      0.76474511	      3.30319255	     -8.03562682	      6.22668113	      1.91225864	      0.00000000	     31.54391088	     -3.62522536	    -13.09946266	    -16.37530940	      0.74649257	    -18.20049406	      0.00000000	     -3.92255663	    -10.16822861	     16.75723300
      5.11000000	     -6.00885835	      1.34864604	    -14.87128818	     -0.54587361	      0.64623189	      0.33677807	    -20.16347431	      0.01796145	      2.13544208	    -10.37723039	      3.18685112	      1.07028398	      0.00000000	     31.93870074	     -2.05626307	    -12.25082097	    -18.37214393	      0.59177934	    -18.21559236	      0.00000000	     -3.33845924	    -11.16964139	     16.37095729
      5.12000000	     -5.98739943	      2.19078186	    -13.51075784	     -0.53121719	      0.64631005	      0.33558654	    -19.28134203	     -0.56515721	      1.24272027	    -13.33904024	     -0.74753822	     -0.59654755	      0.00000000	     32.18642769	     -0.53615882	    -11.59068470	    -20.47400395	      1.23688176	    -17.50301792	      0.00000000	     -3.18088347	    -12.23429712	     15.78284421
